# xmcd
#
# Track frame offsets: 
#        150
#        21127
#        44521
#        65998
#        89439
#        107392
#        128140
#        143127
#        158419
#        176619
#        201283
#        224755
#
# Disc length: 3296 seconds
#
# Revision: 5
# Processed by: cddbd v1.5.2PL0 Copyright (c) Steve Scherf et al.
# Submitted via: ExactAudioCopy v1.0b3
#
DISCID=af0cde0c
DTITLE=Popa Chubby - One Million Broken Guitars
DYEAR=1997
DGENRE=Blues-Rock
TTITLE0=Nobody Knows You When You're Down And Out
TTITLE1=What's Your Point?
TTITLE2=Dance The Night Away
TTITLE3=Real Thing
TTITLE4=Laya What Ya Tryin To Do
TTITLE5=Long Way Home
TTITLE6=Protected
TTITLE7=It All Turns To Gold
TTITLE8=What's Your Problem?
TTITLE9=Naughty Little People
TTITLE10=Nobody Loves Me Like I Love Myself
TTITLE11=Oh Roger (From Road Rot)
EXTD=YEAR: 1997
EXTT0=
EXTT1=
EXTT2=
EXTT3=
EXTT4=
EXTT5=
EXTT6=
EXTT7=
EXTT8=
EXTT9=
EXTT10=
EXTT11=
PLAYORDER=
